<svg width="24" height="24" viewBox="0 0 24 24" fill="none" xmlns="http://www.w3.org/2000/svg">
<path d="M8.745 3.45561C8.68452 3.41819 8.63592 3.36434 8.60488 3.30035C8.57384 3.23636 8.56163 3.16486 8.56969 3.0942C8.57775 3.02353 8.60574 2.95662 8.65039 2.90126C8.69504 2.8459 8.75452 2.80438 8.82188 2.78154C10.1897 2.31025 11.6453 2.14944 13.083 2.31079C14.5207 2.47214 15.9044 2.9516 17.1338 3.71436C17.1783 3.74244 17.2164 3.7796 17.2457 3.8234C17.2749 3.86721 17.2946 3.91668 17.3034 3.96859C17.3123 4.02051 17.3101 4.0737 17.297 4.12472C17.2839 4.17573 17.2602 4.22341 17.2275 4.26467C16.142 5.65177 14.8108 6.82755 13.3003 7.73342C12.0801 6.01991 10.5317 4.56584 8.745 3.45561ZM11.9616 8.43748C10.5923 6.56914 8.79099 5.06019 6.71156 4.03967C6.65202 4.01075 6.5858 3.99836 6.51983 4.00381C6.45386 4.00925 6.39056 4.03232 6.33656 4.07061C4.65317 5.27473 3.39478 6.98147 2.74219 8.94561C2.72579 8.99583 2.72019 9.04895 2.72576 9.10149C2.73133 9.15402 2.74793 9.20479 2.77448 9.25046C2.80104 9.29614 2.83694 9.33568 2.87985 9.36651C2.92275 9.39734 2.97168 9.41876 3.02344 9.42936C4.00196 9.64028 4.99994 9.74775 6.00094 9.74998C8.05961 9.7511 10.0938 9.30319 11.9616 8.43748ZM21.6928 10.9397C21.4544 8.76516 20.4904 6.73438 18.9563 5.17498C18.9188 5.13698 18.8738 5.1074 18.824 5.0882C18.7743 5.069 18.721 5.06063 18.6678 5.06365C18.6146 5.06667 18.5626 5.081 18.5153 5.10569C18.4681 5.13039 18.4266 5.16488 18.3938 5.20686C17.2072 6.71846 15.7558 8.00182 14.1103 8.99436C14.6244 9.88495 15.0499 10.8238 15.3806 11.7975C16.7238 11.4334 18.1093 11.2493 19.5009 11.25C20.0961 11.25 20.6908 11.2835 21.2822 11.3503C21.3372 11.3558 21.3928 11.349 21.4449 11.3305C21.497 11.312 21.5444 11.2822 21.5837 11.2432C21.6229 11.2042 21.6531 11.1571 21.6719 11.1051C21.6908 11.0531 21.6979 10.9976 21.6928 10.9425V10.9397ZM15.795 13.2365C16.0729 14.4186 16.2129 15.6288 16.2122 16.8431C16.2116 18.0054 16.0824 19.164 15.8269 20.2978C15.8105 20.3672 15.8144 20.4399 15.8379 20.5073C15.8614 20.5746 15.9036 20.6339 15.9596 20.6781C16.0156 20.7222 16.0831 20.7495 16.154 20.7568C16.225 20.764 16.2966 20.7508 16.3603 20.7187C17.7822 20.0054 19.0085 18.9559 19.9327 17.6611C20.8569 16.3663 21.4512 14.8656 21.6638 13.289C21.6702 13.2399 21.6668 13.1899 21.6538 13.1421C21.6408 13.0942 21.6184 13.0494 21.588 13.0103C21.5576 12.9712 21.5197 12.9384 21.4765 12.914C21.4334 12.8896 21.3858 12.874 21.3366 12.8681C19.4826 12.6295 17.5999 12.7569 15.795 13.2431V13.2365ZM13.9538 12.2569C13.6515 11.3704 13.2624 10.5159 12.7922 9.70592C10.6731 10.724 8.35191 11.2517 6.00094 11.25C4.902 11.25 3.80606 11.1354 2.73094 10.9078C2.67907 10.8968 2.62546 10.897 2.57367 10.9083C2.52187 10.9196 2.47305 10.9418 2.43044 10.9733C2.38783 11.0048 2.35239 11.045 2.32646 11.0913C2.30052 11.1375 2.28469 11.1887 2.28 11.2415C2.26063 11.4915 2.25063 11.7444 2.25 12C2.24951 13.335 2.52394 14.6559 3.0562 15.8803C3.58847 17.1046 4.36715 18.2063 5.34375 19.1165C5.38495 19.1543 5.43406 19.1824 5.48749 19.1987C5.54093 19.215 5.59734 19.2192 5.65261 19.211C5.70787 19.2027 5.76059 19.1822 5.80691 19.1509C5.85323 19.1197 5.89197 19.0785 5.92031 19.0303C7.75014 15.9254 10.5838 13.5372 13.9538 12.2597V12.2569ZM7.09688 19.9922C7.07223 20.0352 7.05637 20.0827 7.0502 20.1319C7.04402 20.1811 7.04767 20.231 7.06092 20.2788C7.07417 20.3266 7.09677 20.3712 7.1274 20.4102C7.15803 20.4492 7.19609 20.4817 7.23938 20.5059C9.19999 21.6052 11.4805 21.9924 13.6941 21.6019C13.7599 21.5904 13.8214 21.5612 13.8719 21.5174C13.9225 21.4736 13.9602 21.417 13.9809 21.3534C14.4645 19.8998 14.7114 18.3779 14.7122 16.8459C14.7124 15.7905 14.5948 14.7384 14.3616 13.709C11.2897 14.9059 8.72407 17.1249 7.09688 19.9922Z" fill="black"/>
</svg>
